<svg width="1000" height="1000" viewBox="0 0 1000 1000" fill="currentColor" xmlns="http://www.w3.org/2000/svg">
  <path d="M738.08 309.49V261.87H583.32V309.49H738.08Z" />
  <path d="M416.65 309.49V261.87H261.89V309.49H416.65Z" />
  <path d="M999.42 523.81C999.8 515.91 1000 508 1000 500C1000 492 999.81 484.1 999.43 476.19C986.95 211.52 767.72 0 500 0C232.28 0 13.0499 211.52 0.569946 476.19C0.189946 484.1 0 492 0 500C0 508 0.189946 515.91 0.569946 523.81C13.0499 788.38 232.29 1000 500 1000C767.71 1000 986.95 788.38 999.42 523.81ZM523.79 476.19V373.21H476.17V476.19H48.1899C60.6699 237.71 258.57 47.6201 500 47.6201C741.43 47.6201 939.33 237.71 951.81 476.19L523.79 476.19ZM115.58 738.05H416.62V690.43H89.6801C65.8601 639.32 51.2899 583.05 48.1899 523.81L951.81 523.81C949.87 560.85 943.44 596.73 933.08 630.91H583.29V678.53H915.54C896.71 722.16 871.3 762.3 840.42 797.58H589.84V845.2H791.9C713.04 911.99 611.16 952.38 500 952.38C337.83 952.38 195.46 866.56 115.58 738.05Z" />
</svg>
